<?xml version="1.0" encoding="utf-8"?>
<!-- Generator: Adobe Illustrator 23.0.1, SVG Export Plug-In . SVG Version: 6.00 Build 0)  -->
<svg version="1.1" id="Layer_1" xmlns="http://www.w3.org/2000/svg" xmlns:xlink="http://www.w3.org/1999/xlink" x="0px" y="0px"
	 viewBox="0 0 24 24" style="enable-background:new 0 0 24 24;" xml:space="preserve">
<style type="text/css">
	.st0{fill:#FFFFFF;}
</style>
<title>Apple Music icon</title>
<path class="st0" d="M24,6.12c0-0.74-0.07-1.47-0.24-2.19c-0.32-1.31-1.06-2.31-2.18-3.04C21,0.52,20.37,0.28,19.7,0.16
	c-0.52-0.09-1.04-0.14-1.56-0.15C18.1,0.01,18.05,0,18.01,0H5.99c-0.15,0.01-0.3,0.02-0.45,0.03c-0.75,0.04-1.49,0.12-2.19,0.4
	C2,0.96,1.04,1.88,0.47,3.21C0.28,3.66,0.18,4.13,0.11,4.62C0.06,5.01,0.02,5.4,0.01,5.8C0.01,5.83,0,5.86,0,5.89v12.22
	c0.01,0.14,0.02,0.28,0.03,0.42c0.05,0.82,0.15,1.62,0.5,2.37c0.65,1.42,1.74,2.35,3.23,2.8c0.42,0.13,0.86,0.19,1.29,0.23
	C5.61,23.99,6.16,24,6.72,24h11.03c0.52,0,1.05-0.03,1.57-0.1c0.82-0.11,1.6-0.35,2.3-0.81c0.84-0.55,1.47-1.29,1.88-2.21
	c0.19-0.42,0.29-0.87,0.37-1.32C23.98,18.88,24,18.2,24,17.52C24,13.72,24,9.92,24,6.12L24,6.12z M17.57,10.11v5.71
	c0,0.42-0.06,0.83-0.24,1.21c-0.29,0.59-0.76,0.96-1.39,1.14c-0.35,0.1-0.71,0.16-1.07,0.17c-0.95,0.05-1.77-0.6-1.94-1.54
	c-0.14-0.77,0.23-1.62,1.04-2.02c0.32-0.16,0.67-0.25,1.02-0.32c0.38-0.08,0.76-0.15,1.13-0.24c0.27-0.06,0.46-0.23,0.51-0.52
	c0.01-0.06,0.02-0.13,0.02-0.19c0-1.82,0-3.63,0-5.44c0-0.06-0.01-0.12-0.03-0.18c-0.04-0.15-0.15-0.24-0.3-0.23
	C16.16,7.66,16,7.69,15.84,7.72c-0.76,0.15-1.52,0.3-2.28,0.46l-2.33,0.47L9.86,8.92c-0.02,0-0.03,0.01-0.05,0.01
	c-0.28,0.08-0.38,0.2-0.39,0.49c0,0.04,0,0.09,0,0.13c0,2.6,0,5.2,0,7.8c0,0.42-0.05,0.84-0.22,1.23c-0.28,0.64-0.77,1.04-1.43,1.23
	c-0.35,0.1-0.71,0.16-1.07,0.17c-0.96,0.04-1.76-0.6-1.92-1.54c-0.14-0.81,0.23-1.68,1.15-2.08c0.36-0.15,0.73-0.23,1.11-0.31
	C7.33,16,7.61,15.95,7.9,15.89c0.38-0.08,0.58-0.32,0.6-0.71v-0.15c0-2.96,0-5.92,0-8.88c0-0.12,0.01-0.25,0.04-0.37
	c0.07-0.28,0.27-0.45,0.55-0.52C9.34,5.19,9.6,5.14,9.86,5.09c0.73-0.15,1.47-0.3,2.2-0.44l2.27-0.46c0.67-0.13,1.34-0.27,2.01-0.4
	c0.22-0.04,0.44-0.09,0.66-0.11c0.31-0.03,0.52,0.17,0.55,0.48c0.01,0.07,0.01,0.15,0.01,0.22C17.57,6.29,17.57,8.2,17.57,10.11
	L17.57,10.11z"/>
</svg>
