<?xml version="1.0" encoding="utf-8"?>
<!-- Generator: Adobe Illustrator 23.1.1, SVG Export Plug-In . SVG Version: 6.00 Build 0)  -->
<svg version="1.1" id="Layer_1" xmlns="http://www.w3.org/2000/svg" xmlns:xlink="http://www.w3.org/1999/xlink" x="0px" y="0px"
	 viewBox="0 0 15.3 10.1" style="enable-background:new 0 0 15.3 10.1;" xml:space="preserve">
<style type="text/css">
	.st0{fill:#FFFFFF;}
</style>
<path id="Path_248" class="st0" d="M0.4,5.6L6,10c0.2,0.1,0.4,0.1,0.5,0L7,9.4C7.1,9.3,7.1,9.1,7,9c0,0,0,0,0,0l-4-3.2h11.9
	c0.2,0,0.4-0.1,0.4-0.3c0,0,0,0,0,0V4.7c0-0.2-0.1-0.3-0.3-0.3c0,0,0,0,0,0H2.9l4-3.2C7.1,1.1,7.1,0.9,7,0.8c0,0,0,0,0,0L6.5,0.2
	C6.3,0,6.1,0,6,0.2L0.4,4.6C0.2,4.7,0.1,4.9,0.1,5.1C0.2,5.3,0.2,5.5,0.4,5.6z"/>
</svg>
