<svg xmlns="http://www.w3.org/2000/svg" viewBox="0 0 10 15">
  <defs>
    <style>
      .cls-1 {
        fill: #ffffff;
      }
    </style>
  </defs>
  <path id="Path_248" data-name="Path 248" class="cls-1" d="M14.738,4.458,9.188.034a.381.381,0,0,0-.525.035L8.175.591a.321.321,0,0,0,.037.488l4.013,3.17H.375A.342.342,0,0,0,0,4.6v.7a.342.342,0,0,0,.375.348h11.85L8.212,8.812a.322.322,0,0,0-.037.488l.487.522a.384.384,0,0,0,.525.035l5.55-4.424A.72.72,0,0,0,15,4.911.585.585,0,0,0,14.738,4.458Z" transform="translate(9.945) rotate(90)"/>
</svg>
