<?xml version="1.0" encoding="utf-8"?>
<!-- Generator: Adobe Illustrator 23.1.1, SVG Export Plug-In . SVG Version: 6.00 Build 0)  -->
<svg version="1.1" id="Layer_1" xmlns="http://www.w3.org/2000/svg" xmlns:xlink="http://www.w3.org/1999/xlink" x="0px" y="0px"
	 viewBox="0 0 15.3 10.1" style="enable-background:new 0 0 15.3 10.1;" xml:space="preserve">
<style type="text/css">
	.st0{fill:#FFFFFF;}
</style>
<path id="Path_248" class="st0" d="M14.9,4.6L9.3,0.2C9.2,0,8.9,0,8.8,0.2L8.3,0.7C8.2,0.8,8.2,1,8.3,1.2c0,0,0,0,0,0l4,3.2H0.5
	c-0.2,0-0.4,0.1-0.4,0.3c0,0,0,0,0,0v0.7c0,0.2,0.1,0.3,0.3,0.3c0,0,0,0,0,0h11.9l-4,3.2C8.2,9,8.2,9.2,8.3,9.4c0,0,0,0,0,0l0.5,0.5
	c0.1,0.1,0.4,0.2,0.5,0l5.6-4.4C15,5.4,15.1,5.2,15.1,5C15.1,4.9,15,4.7,14.9,4.6z"/>
</svg>
