<?xml version="1.0" encoding="utf-8"?>
<svg width="189.99998474121094" height="190" viewBox="160.248 160.064 190 190" xmlns="http://www.w3.org/2000/svg">
  <path id="path56" style="fill-opacity: 1; fill-rule: nonzero; stroke: none; fill: rgb(255, 255, 255);" d="M 305.359 260.479 C 305.359 232.618 282.694 209.951 254.831 209.951 C 226.971 209.951 204.306 232.618 204.306 260.479 C 204.306 273.371 209.167 285.647 218 295.055 L 218.003 295.052 C 219.19 296.307 221.166 296.37 222.427 295.183 L 227.874 290.059 C 229.127 288.879 229.19 286.907 228.018 285.647 L 228.023 285.64 C 221.598 278.795 218.056 269.855 218.056 260.479 C 218.056 240.202 234.554 223.703 254.831 223.703 C 275.11 223.703 291.608 240.202 291.608 260.479 C 291.608 269.855 288.07 278.795 281.64 285.64 L 281.652 285.652 C 280.483 286.914 280.548 288.882 281.802 290.059 L 287.25 295.183 C 288.508 296.37 290.49 296.307 291.674 295.05 L 291.668 295.047 C 300.498 285.64 305.359 273.366 305.359 260.479" />
  <path id="path60" style="fill-opacity: 1; fill-rule: nonzero; stroke: none; fill: rgb(255, 255, 255);" d="M 324.446 260.237 C 324.446 253.353 323.416 246.563 321.376 240.046 L 321.378 240.046 C 321.376 240.042 321.37 240.035 321.37 240.03 C 321.368 240.025 321.368 240.019 321.365 240.009 C 320.834 238.385 319.097 237.478 317.458 237.986 L 310.316 240.206 C 308.666 240.717 307.745 242.467 308.253 244.117 L 308.246 244.122 C 309.866 249.317 310.697 254.737 310.697 260.237 C 310.697 269.95 308.068 279.477 303.093 287.79 L 303.101 287.798 C 302.226 289.277 302.708 291.189 304.188 292.075 L 310.602 295.922 C 312.085 296.811 314.002 296.33 314.896 294.849 C 321.144 284.405 324.446 272.437 324.446 260.237" />
  <path id="path64" style="fill-opacity: 1; fill-rule: nonzero; stroke: none; fill: rgb(255, 255, 255);" d="M 206.57 287.791 C 201.597 279.479 198.967 269.953 198.967 260.238 C 198.967 254.738 199.794 249.319 201.418 244.126 L 201.421 244.126 L 201.421 244.123 L 201.421 244.121 C 201.93 242.47 201.007 240.721 199.361 240.207 L 192.215 237.982 C 190.577 237.474 188.837 238.382 188.31 240.014 L 188.298 240.007 C 186.254 246.538 185.214 253.342 185.214 260.238 C 185.214 272.435 188.522 284.405 194.767 294.85 L 194.778 294.845 C 195.67 296.313 197.582 296.79 199.061 295.903 L 205.474 292.057 C 206.947 291.173 207.43 289.273 206.566 287.794 Z" />
</svg>