<svg version="1.1" id="Capa_1" xmlns="http://www.w3.org/2000/svg" xmlns:xlink="http://www.w3.org/1999/xlink" x="0px" y="0px"
	 width="97.848px" height="97.848px" viewBox="0 0 97.848 97.848" style="enable-background:new 0 0 97.848 97.848;"
	 xml:space="preserve">
		<rect fill="#ffffff" y="70.818" width="17.838" height="5.406"/>
		<rect fill="#ffffff" y="63.791" width="17.838" height="5.408"/>
		<rect fill="#ffffff" y="56.764" width="17.838" height="5.408"/>
		<rect fill="#ffffff" y="49.736" width="17.838" height="5.405"/>
		<rect fill="#ffffff" y="42.709" width="17.838" height="5.404"/>
		<rect fill="#ffffff" x="20.001" y="70.818" width="17.84" height="5.406"/>
		<rect fill="#ffffff" x="20.001" y="63.791" width="17.84" height="5.408"/>
		<rect fill="#ffffff" x="20.001" y="56.764" width="17.84" height="5.408"/>
		<rect fill="#ffffff" x="40.004" y="70.818" width="17.84" height="5.406"/>
		<rect fill="#ffffff" x="40.004" y="63.791" width="17.84" height="5.408"/>
		<rect fill="#ffffff" x="40.004" y="56.764" width="17.84" height="5.408"/>
		<rect fill="#ffffff" x="40.004" y="49.736" width="17.84" height="5.405"/>
		<rect fill="#ffffff" x="40.004" y="42.709" width="17.84" height="5.404"/>
		<rect fill="#ffffff" x="40.004" y="35.68" width="17.84" height="5.406"/>
		<rect fill="#ffffff" x="40.004" y="28.653" width="17.84" height="5.407"/>
		<rect fill="#ffffff" x="60.005" y="70.818" width="17.841" height="5.406"/>
		<rect fill="#ffffff" x="60.005" y="63.791" width="17.841" height="5.408"/>
		<rect fill="#ffffff" x="60.005" y="56.764" width="17.841" height="5.408"/>
		<rect fill="#ffffff" x="60.005" y="49.736" width="17.841" height="5.405"/>
		<rect fill="#ffffff" x="60.005" y="42.709" width="17.841" height="5.404"/>
		<rect fill="#ffffff" x="80.008" y="70.818" width="17.84" height="5.406"/>
		<rect fill="#ffffff" x="80.008" y="63.791" width="17.84" height="5.408"/>
		<rect fill="#ffffff" x="80.008" y="56.762" width="17.84" height="5.406"/>
		<rect fill="#ffffff" x="80.008" y="49.736" width="17.84" height="5.406"/>
		<rect fill="#ffffff" x="80.008" y="42.707" width="17.84" height="5.407"/>
		<rect fill="#ffffff" x="80.008" y="35.681" width="17.84" height="5.404"/>
		<rect fill="#ffffff" x="80.008" y="28.652" width="17.84" height="5.404"/>
		<rect fill="#ffffff" x="80.008" y="21.623" width="17.84" height="5.406"/>
</svg>	 
