<svg xmlns="http://www.w3.org/2000/svg" width="43.381" height="83.503" viewBox="0 0 43.381 83.503">
  <path id="Path_7" data-name="Path 7" d="M-1793.437,1662.287v-38.165h-12.886v-14.84h12.886v-10.926a23.253,23.253,0,0,1,1.385-8.4,17.1,17.1,0,0,1,3.873-6.157,15.621,15.621,0,0,1,6-3.711,22.751,22.751,0,0,1,7.828-1.3q4.075,0,7.256.205a29.235,29.235,0,0,1,4.158.447v13.21h-7.828q-4.646,0-5.993,2a9.1,9.1,0,0,0-1.346,5.177v9.46h14.679l-1.957,14.84h-12.722v38.165Z" transform="translate(1806.322 -1578.784)" fill="#ffffff" />
</svg>
