<svg xmlns="http://www.w3.org/2000/svg" width="83.503" height="83.503" viewBox="0 0 83.503 83.503">
  <path id="Path_6" data-name="Path 6" d="M-1795.747,1578.906q2.65.125,5.913.205a42.668,42.668,0,0,1,5.791.611,26.305,26.305,0,0,1,4.322,1.182,28.669,28.669,0,0,1,3.953,2.038,19.876,19.876,0,0,1,3.547,2.856,20.7,20.7,0,0,1,2.9,3.587,24.224,24.224,0,0,1,2,3.914,25.967,25.967,0,0,1,1.222,4.281,33.6,33.6,0,0,1,.572,5.832q.165,3.342.244,5.952t.083,11.173q0,8.561-.125,11.212t-.2,5.912a42.533,42.533,0,0,1-.611,5.791,26.422,26.422,0,0,1-1.183,4.322,28.332,28.332,0,0,1-2.04,3.953,19.827,19.827,0,0,1-2.854,3.547,20.591,20.591,0,0,1-3.586,2.9,24.227,24.227,0,0,1-3.914,2,26.18,26.18,0,0,1-4.283,1.224,33.848,33.848,0,0,1-5.83.569q-3.343.165-5.954.244t-11.17.083q-8.564,0-11.211-.122t-5.913-.205a42.5,42.5,0,0,1-5.791-.611,26.5,26.5,0,0,1-4.322-1.182,28.52,28.52,0,0,1-3.955-2.04,19.9,19.9,0,0,1-3.547-2.854,20.575,20.575,0,0,1-2.893-3.586,24.031,24.031,0,0,1-2-3.914,26.192,26.192,0,0,1-1.224-4.283,33.909,33.909,0,0,1-.569-5.83q-.165-3.342-.247-5.954t-.081-11.17q0-8.561.122-11.212t.205-5.913a42.249,42.249,0,0,1,.611-5.79,26.244,26.244,0,0,1,1.183-4.322,28.827,28.827,0,0,1,2.038-3.956,20.021,20.021,0,0,1,2.854-3.545,20.587,20.587,0,0,1,3.589-2.9,24.046,24.046,0,0,1,3.914-2,26.263,26.263,0,0,1,4.281-1.224,33.879,33.879,0,0,1,5.832-.569q3.342-.165,5.952-.244t11.172-.083Q-1798.4,1578.784-1795.747,1578.906Zm-22.221,7.5q-2.529.121-5.954.2a29.422,29.422,0,0,0-4.85.572,20.889,20.889,0,0,0-2.978.9,11.053,11.053,0,0,0-2.526,1.263,15.2,15.2,0,0,0-2.2,1.835,14.417,14.417,0,0,0-1.754,2.12,13.219,13.219,0,0,0-1.347,2.609,27.877,27.877,0,0,0-.816,2.9,25.976,25.976,0,0,0-.488,4.933q-.162,3.346-.244,5.871t-.081,10.928q0,8.48.122,11.009t.2,5.951a29.457,29.457,0,0,0,.572,4.852,20.447,20.447,0,0,0,.9,2.976,10.933,10.933,0,0,0,1.263,2.529,15.13,15.13,0,0,0,1.835,2.2,14.708,14.708,0,0,0,2.12,1.754,13.219,13.219,0,0,0,2.609,1.346,27.32,27.32,0,0,0,2.9.814,25.915,25.915,0,0,0,4.933.491q3.346.161,5.871.244t10.928.081q8.481,0,11.009-.122t5.952-.2a29.514,29.514,0,0,0,4.852-.572,20.941,20.941,0,0,0,2.976-.9,11.038,11.038,0,0,0,2.529-1.265,15.052,15.052,0,0,0,2.2-1.835,14.713,14.713,0,0,0,1.754-2.118,13.078,13.078,0,0,0,1.344-2.609,26.6,26.6,0,0,0,.816-2.9,26,26,0,0,0,.489-4.935q.165-3.342.247-5.871t.081-10.926q0-8.481-.122-11.009t-.205-5.951a29.291,29.291,0,0,0-.569-4.852,21.24,21.24,0,0,0-.9-2.978,10.954,10.954,0,0,0-1.265-2.526,14.884,14.884,0,0,0-1.835-2.2,14.555,14.555,0,0,0-2.118-1.754,13.173,13.173,0,0,0-2.612-1.346,27.083,27.083,0,0,0-2.893-.813,25.953,25.953,0,0,0-4.936-.491q-3.342-.161-5.871-.245t-10.926-.081Q-1815.439,1586.287-1817.968,1586.409Zm19.409,14.31a20.977,20.977,0,0,1,6.848,4.569,21.007,21.007,0,0,1,4.566,6.848,20.691,20.691,0,0,1,1.712,8.4,20.691,20.691,0,0,1-1.712,8.4,21.008,21.008,0,0,1-4.566,6.848,21.008,21.008,0,0,1-6.848,4.566,20.692,20.692,0,0,1-8.4,1.713,20.691,20.691,0,0,1-8.4-1.713,21.021,21.021,0,0,1-6.851-4.566,21.016,21.016,0,0,1-4.566-6.848,20.74,20.74,0,0,1-1.712-8.4,20.74,20.74,0,0,1,1.712-8.4,21.015,21.015,0,0,1,4.566-6.848,20.989,20.989,0,0,1,6.851-4.569,20.738,20.738,0,0,1,8.4-1.71A20.739,20.739,0,0,1-1798.559,1600.719Zm1.507,29.682a13.542,13.542,0,0,0,4.119-9.865,13.437,13.437,0,0,0-4.161-9.907,13.542,13.542,0,0,0-9.866-4.119,13.445,13.445,0,0,0-9.907,4.158,13.548,13.548,0,0,0-4.119,9.868,13.438,13.438,0,0,0,4.158,9.907,13.549,13.549,0,0,0,9.868,4.119A13.44,13.44,0,0,0-1797.052,1630.4Zm15.9-35.715a4.781,4.781,0,0,0-3.464-1.388,4.958,4.958,0,0,0-3.589,1.427,4.662,4.662,0,0,0-1.466,3.467,4.808,4.808,0,0,0,1.507,3.587,4.921,4.921,0,0,0,3.548,1.468,4.561,4.561,0,0,0,3.506-1.507,5.081,5.081,0,0,0,1.388-3.548A4.675,4.675,0,0,0-1781.151,1594.687Z" transform="translate(1848.71 -1578.784)" fill="#ffffff" />
</svg>
