<svg xmlns="http://www.w3.org/2000/svg" width="24" height="24" viewBox="0 0 24 24">
  <title>list-icon</title>
      <path d="M18,8.333H9.333a.333.333,0,1,1,0-.666H18a.333.333,0,0,1,0,.666Z" fill="#fff"/>
      <path d="M18,12.333H9.333a.333.333,0,1,1,0-.666H18a.333.333,0,0,1,0,.666Z" fill="#fff"/>
      <path d="M18,16.333H9.333a.333.333,0,1,1,0-.666H18a.333.333,0,1,1,0,.666Z" fill="#fff"/>
      <path d="M6,8.334a.287.287,0,0,1-.126-.027.273.273,0,0,1-.107-.073.394.394,0,0,1-.073-.106A.425.425,0,0,1,5.664,8a.374.374,0,0,1,.027-.127.3.3,0,0,1,.073-.106.342.342,0,0,1,.474,0,.43.43,0,0,1,.073.106A.4.4,0,0,1,6.331,8a.333.333,0,0,1-.093.233.3.3,0,0,1-.114.073A.271.271,0,0,1,6,8.334Z" fill="#fff"/>
      <path d="M6,12.334a.409.409,0,0,1-.133-.027.377.377,0,0,1-.107-.073.34.34,0,0,1-.1-.233.374.374,0,0,1,.027-.127.3.3,0,0,1,.073-.106.338.338,0,0,1,.367-.074.276.276,0,0,1,.107.074.43.43,0,0,1,.073.106.4.4,0,0,1,.02.127.442.442,0,0,1-.02.127.663.663,0,0,1-.073.106A.324.324,0,0,1,6,12.334Z" fill="#fff"/>
      <path d="M6,16.334a.323.323,0,0,1-.233-.1.34.34,0,0,1-.1-.233.372.372,0,0,1,.1-.241.3.3,0,0,1,.107-.066.336.336,0,0,1,.253,0,.329.329,0,0,1,.114.066A.353.353,0,0,1,6.331,16a.333.333,0,0,1-.093.233.328.328,0,0,1-.114.073A.271.271,0,0,1,6,16.334Z" fill="#fff"/>
</svg>
