<svg xmlns="http://www.w3.org/2000/svg" width="24" height="24" viewBox="0 0 24 24">
  <title>map-icon</title>
      <path d="M14.181,17.909a.343.343,0,0,1-.149-.035l-4.2-2.1L6.165,17.865a.333.333,0,0,1-.5-.289V8.849a.333.333,0,0,1,.168-.29L9.653,6.377a.336.336,0,0,1,.314-.009l4.205,2.1,3.662-2.094a.338.338,0,0,1,.333,0,.334.334,0,0,1,.166.289v8.727a.333.333,0,0,1-.168.289l-3.818,2.182A.328.328,0,0,1,14.181,17.909ZM9.818,15.061a.326.326,0,0,1,.149.035l4.2,2.1,3.5-2V7.241l-3.319,1.9a.333.333,0,0,1-.314.009l-4.2-2.1-3.5,2V17l3.32-1.9A.333.333,0,0,1,9.818,15.061Z" fill="#fff"/>
      <rect x="9.485" y="6.667" width="0.667" height="8.727" fill="#fff"/>
      <rect x="13.849" y="8.849" width="0.667" height="8.727" fill="#fff"/>
</svg>
