<svg xmlns="http://www.w3.org/2000/svg" width="16" height="16" viewBox="0 0 16 16">
  <title>the-other-cube</title>
  <path d="M5,12l-.04.02.99.57Z" fill="#01ecff" />
  <polygon points="14.93 4 14.93 12 8 16 4 13.69 3 13.11 3 5.11 8 2.23 13 5.11 13 10.89 8 13.77 6 12.62 5.95 12.59 5 12 5 6.27 8 4.54 11 6.27 11 9.73 8 11.46 8 10.31 10 9.15 10 6.85 8 5.69 6 6.85 6 11.47 8 12.62 12 10.31 12 5.69 8 3.38 4 5.69 4 12.54 8 14.85 13.93 11.42 13.93 4.58 8 1.15 2.07 4.58 2.07 12.58 1.07 12 1.07 4 8 0 14.93 4" fill="#01ecff" />
</svg>
