<svg xmlns="http://www.w3.org/2000/svg" width="83.5" height="69.82" viewBox="0 0 83.5 69.82">
  <path id="Path_5" data-name="Path 5" d="M-1800.855,1620.494a8.819,8.819,0,0,1-3.75,3.017,13.562,13.562,0,0,1,.366,1.835,13.348,13.348,0,0,1,.122,1.754,16.745,16.745,0,0,1-2.935,9.46,27.66,27.66,0,0,1-7.953,7.706,43.016,43.016,0,0,1-11.781,5.258,54.733,54.733,0,0,1-14.515,1.876,52.036,52.036,0,0,1-14.515-1.957,41.379,41.379,0,0,1-11.784-5.177,27.672,27.672,0,0,1-7.953-7.706,17,17,0,0,1-2.934-9.46,15.948,15.948,0,0,1,.122-1.957,10.814,10.814,0,0,1,.367-1.793,8.13,8.13,0,0,1-3.548-3.017,7.985,7.985,0,0,1-1.343-4.486,7.874,7.874,0,0,1,2.362-5.79,7.882,7.882,0,0,1,5.79-2.365,7.676,7.676,0,0,1,3.548.816,8.171,8.171,0,0,1,2.651,2.121,38.6,38.6,0,0,1,5.3-3.1,41.971,41.971,0,0,1,6.035-2.365,50.2,50.2,0,0,1,6.687-1.552,52.725,52.725,0,0,1,7.259-.652l7.012-20.386a1.367,1.367,0,0,1,.694-.775,1.743,1.743,0,0,1,1.1-.2l16.472,3.914a.47.47,0,0,1,.327.164,7.171,7.171,0,0,1,2.445-2.731,6.364,6.364,0,0,1,3.589-1.021,6.155,6.155,0,0,1,4.524,1.835,6.147,6.147,0,0,1,1.835,4.527,6.414,6.414,0,0,1-1.835,4.605,6.017,6.017,0,0,1-4.524,1.918,6.3,6.3,0,0,1-4.569-1.835,6.21,6.21,0,0,1-1.957-4.364h-.652l-15-3.587-6.034,17.938a57.161,57.161,0,0,1,7.5.652,54.321,54.321,0,0,1,6.89,1.552,35.383,35.383,0,0,1,6.157,2.446,32.453,32.453,0,0,1,5.382,3.181,8.038,8.038,0,0,1,2.773-2.284,7.917,7.917,0,0,1,3.586-.816,7.876,7.876,0,0,1,5.791,2.365,7.876,7.876,0,0,1,2.365,5.79A7.744,7.744,0,0,1-1800.855,1620.494Zm-57.571,6.118a5.809,5.809,0,0,0,4.241,1.793,5.805,5.805,0,0,0,4.242-1.793,5.8,5.8,0,0,0,1.793-4.241,5.807,5.807,0,0,0-1.793-4.241,5.8,5.8,0,0,0-4.242-1.793,5.808,5.808,0,0,0-4.241,1.793,5.807,5.807,0,0,0-1.793,4.241A5.8,5.8,0,0,0-1858.426,1626.612Zm31.07,11.7a1.252,1.252,0,0,0-.245-.774.88.88,0,0,0-.652-.244.881.881,0,0,0-.652.244,11,11,0,0,1-4.935,2.731,27.251,27.251,0,0,1-7.3.857,26.348,26.348,0,0,1-7.42-.9,11.113,11.113,0,0,1-4.811-2.69.879.879,0,0,0-.652-.244.879.879,0,0,0-.652.244,1.565,1.565,0,0,0-.245.816.879.879,0,0,0,.245.652,12.536,12.536,0,0,0,5.463,3.1,29.013,29.013,0,0,0,8.072.98,28.191,28.191,0,0,0,8.155-1.021,12.677,12.677,0,0,0,5.382-3.057A.935.935,0,0,0-1827.356,1638.313Zm3.586-11.661a5.886,5.886,0,0,0,1.712-4.281,5.936,5.936,0,0,0-1.712-4.241,5.535,5.535,0,0,0-4.158-1.793,5.987,5.987,0,0,0-4.4,1.793,5.8,5.8,0,0,0-1.793,4.241,5.656,5.656,0,0,0,1.835,4.322,6.173,6.173,0,0,0,4.361,1.712A5.588,5.588,0,0,0-1823.769,1626.651Z" transform="translate(1882.887 -1581.581)" fill="#ffffff" />
</svg>
