<?xml version="1.0" encoding="utf-8"?>
<!-- Generator: Adobe Illustrator 23.0.1, SVG Export Plug-In . SVG Version: 6.00 Build 0)  -->
<svg version="1.1" id="Layer_1" xmlns="http://www.w3.org/2000/svg" xmlns:xlink="http://www.w3.org/1999/xlink" x="0px" y="0px"
	 viewBox="0 0 103.35 68.43" style="enable-background:new 0 0 103.35 68.43;" xml:space="preserve">
<style type="text/css">
	.st0{fill:#FFFFFF;}
</style>
<g>
	<path class="st0" d="M84.12,64.52c-0.36,1.96-1.74,3.41-3.85,3.85c-1.16,0.22-2.18-0.07-3.19-0.65c-5.44-3.27-11.25-5.73-17.34-7.4
		c-3.77-1.02-7.62-1.81-11.54-2.1c-3.63-0.29-7.18-0.51-10.81-0.51c-3.7,0.07-7.47,0.36-11.1,0.87c-4.43,0.58-8.78,1.52-13.14,2.25
		c-1.52,0.29-3.56-0.73-4.5-2.18c-0.94-1.6-0.8-3.77,0.29-5.15c0.73-0.87,1.6-1.52,2.76-1.74c4.86-0.87,9.72-1.81,14.66-2.47
		c4.21-0.58,8.42-0.73,12.63-1.02c10.67,0.15,21.12,1.81,31.06,5.66c4.06,1.6,7.98,3.48,11.68,5.73
		C83.54,60.89,84.41,62.7,84.12,64.52"/>
	<path class="st0" d="M91.95,47.1c-1.89,2.25-4.79,2.76-7.4,1.38c-2.76-1.45-5.44-2.98-8.27-4.28c-5.66-2.61-11.54-4.43-17.63-5.59
		c-4.35-0.8-8.78-1.38-13.21-1.81c-3.48-0.36-6.97-0.44-10.45-0.36c-7.55,0.22-15.02,1.31-22.35,3.48c-4.5,1.31-7.69-1.89-7.69-5.52
		c0-2.32,1.6-4.64,3.99-5.3c4.21-1.09,8.42-2.03,12.63-2.9c5.44-1.02,10.96-1.38,16.55-1.52c4.43,0.29,8.93,0.44,13.35,1.02
		c12.99,1.6,25.33,5.23,36.79,11.68c1.23,0.65,2.47,1.38,3.41,2.39C93.62,41.8,93.62,45.07,91.95,47.1"/>
	<path class="st0" d="M103.28,21.05c-0.44,2.83-2.61,5.15-5.44,5.73c-1.6,0.29-3.19,0.15-4.57-0.65
		c-8.56-5.01-17.85-8.06-27.58-9.94c-3.77-0.73-7.62-1.16-11.47-1.67c-5.3-0.73-10.67-0.94-16.04-0.8
		c-4.86,0.15-9.65,0.58-14.51,1.02c-5.3,0.44-10.38,1.74-15.53,3.12c-3.77,1.02-7.91-2.25-8.13-6.17c-0.15-3.41,1.89-6.31,5.37-7.26
		c5.08-1.45,10.23-2.47,15.53-3.19c2.69-0.36,5.3-0.58,7.98-0.73C32.45,0.29,36,0.15,38.61,0c3.99,0.15,7.18,0.07,10.31,0.36
		c4.64,0.36,9.29,0.94,13.93,1.6c7.26,1.02,14.37,2.76,21.26,5.15c5.44,1.89,10.67,4.21,15.68,7.11
		C102.33,15.6,103.71,18.36,103.28,21.05"/>
</g>
</svg>
