<?xml version="1.0" encoding="utf-8"?>
<!-- Generator: Adobe Illustrator 23.0.1, SVG Export Plug-In . SVG Version: 6.00 Build 0)  -->
<svg version="1.1" id="Layer_1" xmlns="http://www.w3.org/2000/svg" xmlns:xlink="http://www.w3.org/1999/xlink" x="0px" y="0px"
	 viewBox="0 0 116.07 77.65" style="enable-background:new 0 0 116.07 77.65;" xml:space="preserve">
<style type="text/css">
	.st0{fill:#FFFFFF;}
</style>
<g>
	<path class="st0" d="M58.14,77.65c-6.33-6.33-12.72-12.72-18.98-19.04c6.19-6.19,12.65-12.58,19.04-18.91
		c6.12,6.12,12.58,12.58,18.91,18.98C70.85,64.93,64.39,71.33,58.14,77.65"/>
	<path class="st0" d="M96.76,38.69c-6.19-6.26-12.58-12.65-19.11-19.24c-6.59,6.66-12.99,13.12-19.51,19.65
		c-6.59-6.66-12.99-13.19-19.58-19.85c-0.13,0.13-0.2,0.2-0.34,0.34l0,0c-6.53,6.59-12.85,12.92-19.04,19.18
		C12.72,32.3,6.33,25.91,0,19.58C6.33,13.26,12.78,6.86,19.24,0.4c6.26,6.33,12.58,12.72,19.04,19.24c0.13-0.13,0.2-0.2,0.34-0.34
		l0,0C45.15,12.72,51.41,6.39,57.73,0c6.73,6.73,13.12,13.19,19.58,19.65C83.91,12.99,90.3,6.53,96.63,0.07
		c6.73,6.73,13.12,13.19,19.45,19.51C109.68,25.91,103.22,32.3,96.76,38.69"/>
</g>
</svg>
