<svg xmlns="http://www.w3.org/2000/svg" width="83.5" height="67.847" viewBox="0 0 83.5 67.847">
  <path id="Path_3" data-name="Path 3" d="M-1876.222,1598.951v2.118a50,50,0,0,1-3.181,17.207,49.047,49.047,0,0,1-9.377,15.656,48.975,48.975,0,0,1-15.331,11.5,47.143,47.143,0,0,1-20.875,4.405,51.1,51.1,0,0,1-7.1-.491,46.172,46.172,0,0,1-6.809-1.468,44.344,44.344,0,0,1-6.4-2.446,42.017,42.017,0,0,1-5.951-3.261q.979.081,2.038.122t2.038.042a35.253,35.253,0,0,0,11.458-1.877,31.78,31.78,0,0,0,9.908-5.463,16.024,16.024,0,0,1-10.029-3.384,17.557,17.557,0,0,1-6.118-8.521,6.763,6.763,0,0,0,1.591.286c.518.027,1.075.042,1.673.042a20.683,20.683,0,0,0,2.324-.125,22.236,22.236,0,0,0,2.243-.366,16.847,16.847,0,0,1-9.788-5.952,16.531,16.531,0,0,1-3.914-10.845v-.327a17.13,17.13,0,0,0,3.63,1.549,14.041,14.041,0,0,0,4.036.572,16.614,16.614,0,0,1-5.546-5.993,16.537,16.537,0,0,1-2.121-8.195,15.711,15.711,0,0,1,.652-4.486,18.777,18.777,0,0,1,1.8-4.158,45.394,45.394,0,0,0,7.012,7.093,49.061,49.061,0,0,0,8.4,5.5,49.249,49.249,0,0,0,9.458,3.711,47.242,47.242,0,0,0,10.357,1.629,16.693,16.693,0,0,1-.367-1.957,15.948,15.948,0,0,1-.122-1.957,17.44,17.44,0,0,1,1.3-6.684,17.946,17.946,0,0,1,3.711-5.424,16.819,16.819,0,0,1,5.421-3.628,16.159,16.159,0,0,1,6.687-1.388,16.633,16.633,0,0,1,6.973,1.468,18.179,18.179,0,0,1,5.585,3.914,37.015,37.015,0,0,0,5.708-1.591,30.644,30.644,0,0,0,5.221-2.487,17.3,17.3,0,0,1-2.937,5.382,18.086,18.086,0,0,1-4.566,4.078,37.932,37.932,0,0,0,4.974-.98,27.052,27.052,0,0,0,4.811-1.793,38.073,38.073,0,0,1-3.873,4.811A39.3,39.3,0,0,1-1876.222,1598.951Z" transform="translate(1951.242 -1581.988)" fill="#ffffff" />
</svg>
