<svg xmlns="http://www.w3.org/2000/svg" width="83.503" height="58.712" viewBox="0 0 83.503 58.712">
  <path id="Path_2" data-name="Path 2" d="M-1902.733,1596.579q.814,8.4.816,13.374v6.36q0,5.138-.816,13.538-1.469,6.359-3.262,8.317a10.156,10.156,0,0,1-4.852,2.976,27.091,27.091,0,0,1-3.628.613q-4.325.326-9.46.489-5.058.161-9.46.244t-7.339.081h-6.44q-3.508-.081-8.2-.161t-9.418-.244q-4.728-.165-7.256-.408-1.385-.245-4.119-.694a9.532,9.532,0,0,1-5.177-2.9q-1.876-1.957-3.262-8.317-.817-8.4-.816-13.538v-6.36q0-5.057.816-13.374,1.466-6.523,3.262-8.316a9.226,9.226,0,0,1,4.852-3.059,34.041,34.041,0,0,1,3.628-.53q4.321-.326,9.46-.489,5.054-.165,9.458-.244t7.339-.083h5.871q2.936,0,7.339.083t9.46.244q5.138.161,9.46.489,1.22.165,3.628.611a9.4,9.4,0,0,1,4.852,2.978Q-1904.118,1590.138-1902.733,1596.579Zm-26.909,15.82-22.506-11.742v23.484l19.733-10.273Z" transform="translate(1985.42 -1583.857)" fill="#ffffff" />
</svg>
