<?xml version="1.0" standalone="no"?>
<!DOCTYPE svg PUBLIC "-//W3C//DTD SVG 20010904//EN"
 "http://www.w3.org/TR/2001/REC-SVG-20010904/DTD/svg10.dtd">
<svg version="1.0" xmlns="http://www.w3.org/2000/svg"
 width="504.000000pt" height="504.000000pt" viewBox="0 0 504.000000 504.000000"
 preserveAspectRatio="xMidYMid meet">
<metadata>
Created by potrace 1.14, written by Peter Selinger 2001-2017
</metadata>
<g transform="translate(0.000000,504.000000) scale(0.100000,-0.100000)"
fill="#000000" stroke="none">
<path d="M2210 5033 c-97 -12 -340 -67 -455 -104 -142 -45 -315 -119 -440
-187 -80 -44 -292 -181 -317 -205 -7 -7 -26 -23 -43 -35 -76 -58 -236 -209
-310 -293 -44 -50 -155 -190 -174 -219 -8 -14 -18 -27 -21 -30 -27 -22 -171
-282 -228 -410 -85 -190 -167 -478 -187 -660 -4 -30 -10 -86 -15 -125 -11 -89
-5 -435 9 -540 141 -1056 912 -1902 1944 -2135 576 -130 1217 -41 1739 241
251 136 546 373 708 569 182 220 294 397 393 622 211 477 268 995 167 1508
-183 923 -865 1663 -1775 1925 -49 14 -151 37 -225 52 -126 25 -154 27 -435
28 -165 1 -316 0 -335 -2z"/>
</g>
</svg>
